# xmcd
#
# Track frame offsets: 
#        150
#        10208
#        29370
#        52982
#        72582
#        91930
#        113216
#        141879
#        166507
#        185682
#        219989
#
# Disc length: 3216 seconds
#
# Revision: 0
# Processed by: cddbd v1.5.2PL0 Copyright (c) Steve Scherf et al.
# Submitted via: ExactAudioCopyFreeDBPlugin 1.0
#
DISCID=910c8e0b
DTITLE=The Owsley Brothers - Tob
DYEAR=2014
DGENRE=Rock
TTITLE0=Diamond In The Raw
TTITLE1=Flash in Pan
TTITLE2=Dont Mind Dyin'
TTITLE3=Red Moon
TTITLE4=Natural Born Sinner
TTITLE5=200 Miles
TTITLE6=What's Come Over Me
TTITLE7=Just Take One
TTITLE8=Diddley Bow
TTITLE9=Comin' On Soon
TTITLE10=Cave Dwellar
EXTD=
EXTT0=
EXTT1=
EXTT2=
EXTT3=
EXTT4=
EXTT5=
EXTT6=
EXTT7=
EXTT8=
EXTT9=
EXTT10=
PLAYORDER=
